<?xml version="1.0" encoding="utf-8"?>
<!-- Generator: Adobe Illustrator 17.0.0, SVG Export Plug-In . SVG Version: 6.00 Build 0)  -->
<!DOCTYPE svg PUBLIC "-//W3C//DTD SVG 1.1//EN" "http://www.w3.org/Graphics/SVG/1.1/DTD/svg11.dtd">
<svg version="1.1" id="Layer_1" xmlns="http://www.w3.org/2000/svg" xmlns:xlink="http://www.w3.org/1999/xlink" x="0px" y="0px"
	 width="841.89px" height="595.28px" viewBox="0 0 841.89 595.28" enable-background="new 0 0 841.89 595.28" xml:space="preserve">
<g>
	<path fill="#FFFFFF" d="M148.171,319.05c-1.469-0.369-2.265-0.965-2.626-2.335c-0.225-0.856-1.208-1.515-1.861-2.254
		c-1.398-1.584-2.779-3.184-4.211-4.737c-1.842-1.998-3.71-3.973-5.6-5.926c-1.183-1.222-2.378-2.44-3.657-3.558
		c-1.309-1.145-2.734-2.156-4.093-3.244c-1.795-1.437-3.581-2.885-5.358-4.343c-0.422-0.346-0.796-0.752-1.185-1.136
		c-0.13-0.128-0.214-0.36-0.362-0.405c-2.754-0.84-4.782-2.892-7.189-4.309c-1.243-0.732-2.323-1.737-3.545-2.511
		c-0.604-0.383-1.353-0.557-2.056-0.757c-0.712-0.202-1.44-0.385-2.174-0.464c-3.682-0.397-6.852-2.511-10.496-3.074
		c-2.124-0.328-4.203-0.95-6.303-1.44c-0.06-0.014-0.126-0.023-0.178-0.054c-1.659-0.993-3.484-1.59-5.257-2.326
		c-1.698-0.704-3.182-1.908-4.818-2.784c-1.642-0.879-3.367-1.601-5.033-2.439c-0.599-0.301-1.097-0.802-1.696-1.103
		c-2.269-1.142-4.42-2.546-6.93-3.164c-2.515-0.619-5.004-1.369-7.546-1.844c-1.839-0.344-3.711-0.102-5.52,0.519
		c-1.057,0.362-2.16,0.772-3.253,0.806c-2.311,0.072-3.761,1.749-5.598,2.696c-0.103,0.053-0.237,0.186-0.236,0.279
		c0.026,1.484-1.348,1.87-2.064,2.775c-0.535,0.675-0.762,1.714-0.824,2.611c-0.067,0.959,0.216,1.944,0.355,2.916
		c0.171,1.201-0.257,2.056-1.331,2.631c-0.942,0.505-2.413,0.382-3.082-0.34c-1.16-1.251-1.858-2.716-2.053-4.443
		c-0.18-1.597-0.566-3.172-0.724-4.77c-0.133-1.343-0.234-2.666,0.224-4.051c0.395-1.195,0.21-2.573,0.345-3.864
		c0.24-2.309,0.793-4.492,2.325-6.361c0.863-1.053,1.515-2.276,2.284-3.408c1.256-1.848,3.401-2.4,5.17-3.495
		c1.416-0.877,2.878-1.681,4.337-2.487c0.259-0.143,0.598-0.186,0.902-0.195c4.049-0.128,8.108-0.454,12.144-0.272
		c2.112,0.095,4.282,0.402,6.391,1.168c2.821,1.024,5.802,1.642,8.855,1.736c0.924,0.028,1.837,0.327,2.76,0.473
		c1.639,0.259,3.282,0.496,5.029,0.581c-0.983-1.492-1.047-3.542-3.045-4.251c-0.154-0.055-0.304-0.235-0.375-0.394
		c-1.678-3.709-4.526-6.733-5.993-10.604c-0.858-2.265-1.872-4.423-2.17-6.869c-0.133-1.09-0.572-2.164-1-3.192
		c-1.131-2.719-1.739-5.545-1.991-8.468c-0.186-2.161-0.45-4.316-0.677-6.474c-0.026-0.244-0.108-0.509-0.045-0.73
		c0.945-3.311,0.69-6.794,1.45-10.121c0.413-1.81,1.072-3.565,1.64-5.338c0.358-1.116,0.829-2.201,1.114-3.335
		c0.523-2.076,1.379-3.934,2.649-5.694c1.118-1.549,1.793-3.412,2.756-5.083c1.023-1.775,2.226-3.448,3.213-5.241
		c0.543-0.986,1.098-1.886,1.907-2.699c0.951-0.957,1.807-2.064,2.47-3.238c0.742-1.314,1.694-2.388,2.787-3.384
		c0.22-0.201,0.429-0.497,0.484-0.781c0.166-0.845,0.697-1.154,1.455-1.49c0.792-0.352,1.571-0.993,2.063-1.709
		c1.297-1.886,3.359-2.883,4.895-4.473c0.043-0.045,0.09-0.101,0.145-0.117c2.192-0.621,3.963-1.972,5.744-3.305
		c0.318-0.238,0.706-0.402,0.975-0.683c0.449-0.469,0.821-0.641,1.578-0.592c1.28,0.083,2.415-0.731,3.395-1.523
		c0.605-0.489,1.16-0.816,1.937-0.978c0.896-0.187,1.7-0.844,2.595-0.994c2.219-0.373,4.287-1.433,6.444-1.719
		c2.17-0.287,4.28-1.312,6.593-0.772c0.683,0.16,1.545-0.275,2.281-0.554c1.011-0.383,1.937-0.712,3.056-0.219
		c0.77,0.339,1.685,0.368,2.542,0.485c1.82,0.249,3.648,0.44,5.465,0.706c0.729,0.107,1.432,0.387,2.159,0.52
		c5.492,1.009,10.588,3.117,15.554,5.582c0.891,0.442,1.777,0.91,2.606,1.456c2.595,1.706,5.248,3.342,7.711,5.225
		c1.865,1.426,3.466,3.195,5.2,4.795c1.859,1.716,3.036,4.024,4.977,5.676c0.406,0.346,0.609,0.925,0.931,1.379
		c0.357,0.503,0.755,0.978,1.116,1.478c0.462,0.639,0.876,1.316,1.364,1.934c1.221,1.547,1.937,3.375,2.846,5.091
		c1.273,2.404,2.427,4.872,3.593,7.331c0.611,1.287,1.119,2.624,1.712,3.92c0.902,1.97,1.673,3.965,2.132,6.105
		c0.596,2.78,1.422,5.51,2.115,8.271c0.102,0.406-0.009,0.861,0.024,1.291c0.108,1.417,0.319,2.83,0.342,4.248
		c0.049,3.078,0.106,6.161-0.033,9.234c-0.091,2.022-0.69,4.025-0.741,6.045c-0.042,1.663-0.461,3.129-1.096,4.618
		c-0.31,0.727-0.11,1.715-0.512,2.35c-1.297,2.042-1.388,4.428-2.138,6.617c-0.58,1.693-0.938,3.543-1.881,5.009
		c-1.164,1.808-1.69,3.823-2.496,5.733c-1.557,3.689-3.706,7.004-5.97,10.259c-1.603,2.305-3.556,4.304-5.695,6.13
		c-0.965,0.824-1.805,1.793-2.704,2.694c-0.221,0.221-0.426,0.467-0.678,0.646c-2.915,2.069-5.506,4.613-8.892,5.998
		c-0.723,0.296-1.317,0.89-2.018,1.255c-2.029,1.057-4.041,2.162-6.142,3.056c-1.114,0.474-2.411,0.5-3.601,0.821
		c-1.176,0.317-2.321,0.752-3.624,1.183c0.666,1.429,1.435,2.328,2.692,2.769c0.902,0.316,1.517,0.94,2.172,1.653
		c1.322,1.44,2.916,2.626,4.325,3.992c1.6,1.552,3.115,3.191,4.678,4.782c1.032,1.051,1.945,2.3,3.159,3.068
		c1.275,0.805,2.105,1.928,2.949,3.039c1.958,2.578,4.062,4.994,6.402,7.244c1.872,1.799,3.464,3.889,5.18,5.85
		c0.74,0.846,1.525,1.656,2.207,2.546c2.872,3.752,5.69,7.546,8.574,11.289c2.075,2.693,4.296,5.275,6.321,8.004
		c2.068,2.787,3.975,5.694,5.954,8.547c0.957,1.38,1.968,2.725,2.859,4.147c0.751,1.199,1.32,2.512,2.049,3.726
		c0.955,1.589,2.066,3.089,2.972,4.704c1.279,2.28,2.403,4.648,3.645,6.95c3.109,5.761,5.367,11.863,7.424,18.058
		c0.823,2.477,1.814,4.902,2.809,7.318c1.039,2.519,2.05,5.039,2.706,7.693c0.655,2.65,1.399,5.279,2.023,7.936
		c0.353,1.503,0.452,3.067,0.826,4.563c0.719,2.88,1.433,5.745,1.511,8.741c0.048,1.832,0.333,3.657,0.419,5.49
		c0.03,0.652-0.252,1.313-0.327,1.977c-0.138,1.223-0.256,2.451-0.331,3.679c-0.064,1.045,0.01,2.102-0.097,3.141
		c-0.159,1.541-0.422,3.071-0.648,4.605c-0.045,0.307-0.108,0.613-0.192,0.911c-0.416,1.463-0.887,2.889-1.057,4.438
		c-0.429,3.91-2.294,7.269-4.398,10.515c-1.029,1.588-1.884,3.288-2.928,4.865c-1.124,1.699-2.386,3.306-3.568,4.967
		c-0.644,0.905-1.227,1.854-1.875,2.757c-2.032,2.836-4.599,5.159-7.181,7.472c-1.37,1.228-2.638,2.571-4.026,3.777
		c-1.301,1.13-2.596,2.329-4.078,3.174c-2.098,1.196-3.629,3.283-6.107,3.854c-2.935,2.446-6.678,3.409-9.887,5.361
		c-0.637,0.387-1.517,0.373-2.283,0.552c-0.225,0.052-0.475,0.085-0.66,0.208c-0.974,0.649-1.846,1.573-2.912,1.938
		c-2.089,0.714-3.997,1.938-6.242,2.222c-0.731,0.093-1.447,0.335-2.16,0.541c-1.839,0.53-3.677,1.065-5.509,1.62
		c-3.033,0.919-6.059,1.864-9.094,2.778c-0.809,0.244-1.646,0.393-2.462,0.619c-2.954,0.817-5.978,0.947-9.013,1.225
		c-2.85,0.261-5.693,0.137-8.529,0.381c-1.046,0.09-2.109-0.042-3.163-0.019c-0.672,0.015-1.342,0.129-2.013,0.197
		c-0.303,0.031-0.67,0.182-0.9,0.065c-1.716-0.871-3.518-0.241-5.271-0.378c-2.049-0.161-4.108-0.355-6.124-0.738
		c-1.719-0.327-3.415-0.526-5.169-0.6c-2.426-0.103-4.644-1.237-6.942-1.956c-1.069-0.335-2.105-0.774-3.17-1.123
		c-2.245-0.735-4.396-1.637-6.351-3.006c-1.629-1.14-3.386-2.098-5.007-3.248c-1.725-1.223-3.402-2.523-5.019-3.885
		c-2.572-2.166-5.107-4.379-7.595-6.642c-0.963-0.876-1.747-1.947-2.624-2.918c-1.823-2.018-3.712-3.979-5.458-6.061
		c-0.954-1.137-1.682-2.464-2.493-3.718c-2.361-3.645-4.715-7.295-7.064-10.948c-0.166-0.258-0.284-0.55-0.4-0.837
		c-0.466-1.148-0.719-2.449-1.428-3.418c-1.178-1.611-1.524-3.495-2.237-5.259c-0.536-1.326-0.652-2.738-1.015-4.084
		c-0.298-1.104-1.013-2.106-1.049-3.323c-0.007-0.247-0.092-0.491-0.111-0.739c-0.173-2.28-0.304-4.564-0.529-6.838
		c-0.071-0.722-0.58-1.427-0.556-2.128c0.093-2.722,0.324-5.438,0.489-8.158c0.017-0.286-0.066-0.578-0.099-0.867
		c-0.063-0.554-0.236-1.123-0.163-1.658c0.207-1.514,0.498-3.017,0.788-4.519c0.597-3.096,1.118-6.211,1.857-9.274
		c0.476-1.972,1.286-3.862,1.939-5.792c0.238-0.701,0.458-1.408,0.68-2.115c0.037-0.118,0.006-0.261,0.058-0.368
		c1.486-3.071,2.702-6.318,4.542-9.16c2.128-3.286,4.819-6.207,7.241-9.304c0.946-1.21,1.833-2.434,3.1-3.383
		c0.916-0.687,1.532-1.759,2.377-2.559c2.696-2.552,5.564-4.905,8.604-7.035c1.003-0.703,2.162-1.177,3.197-1.838
		c1.395-0.892,2.724-1.886,4.112-2.788c0.447-0.29,0.975-0.534,1.495-0.618c1.721-0.278,3.428-0.574,4.953-1.487
		c2.132-1.277,4.465-0.751,6.737-0.763c0.621-0.003,1.243,0.035,1.865,0.043c1.549,0.019,3.098,0.038,4.647,0.043
		c2.75,0.009,4.918,1.649,7.31,2.641c1.024,0.425,1.877,1.253,2.891,1.714c2.076,0.944,3.004,3.112,4.808,4.324
		c0.254,1.75,2.088,2.621,2.321,4.531c0.144,1.183,1.126,2.312,1.083,3.678c-0.03,0.961,0.08,1.953-0.118,2.878
		c-0.36,1.681-2.65,2.463-4.02,1.395c-0.775-0.604-1.415-1.38-2.114-2.081c-0.305-0.306-0.553-0.73-0.92-0.903
		c-1.57-0.738-3.186-1.381-4.765-2.1c-1.996-0.909-4.005-0.627-6.009-0.103c-1.384,0.361-2.808,0.67-4.104,1.248
		c-2.85,1.271-5.082,3.161-6.183,6.275c-0.906,2.564-2.151,5.007-3.178,7.531c-0.25,0.614-0.216,1.339-0.34,2.008
		c-0.272,1.46-0.428,2.959-0.87,4.367c-1.159,3.689,0.138,7.092,1.042,10.549c0.311,1.19,0.659,2.37,1.005,3.55
		c0.767,2.616,1.576,5.156,2.985,7.586c1.773,3.056,3.981,5.69,6.312,8.258c0.954,1.05,2.374,1.702,3.231,2.808
		c1.672,2.157,3.897,3.177,6.35,4.145c3.161,1.248,6.199,2.754,9.702,2.718c1.669,0.927,3.764,0.039,5.368,1.258
		c0.087,0.066,0.244,0.07,0.363,0.056c3.112-0.375,6.298,0.414,9.379-0.724c1.207-0.446,2.561-0.537,3.86-0.675
		c0.947-0.101,1.695-0.496,2.193-1.238c0.935-1.395,2.362-1.717,3.787-1.512c1.775,0.255,3.217-0.387,4.596-1.223
		c2.011-1.219,4.044-2.452,5.853-3.94c1.685-1.386,3.103-3.101,4.616-4.692c2.161-2.272,3.751-4.986,5.712-7.415
		c0.974-1.206,2.005-2.387,2.814-3.7c0.917-1.49,1.711-3.055,2.277-4.749c0.253-0.757,0.655-1.522,0.997-2.275
		c0.755-1.662,1.245-3.34,1.329-5.158c0.016-0.336,0.275-0.666,0.444-0.988c0.114-0.217,0.416-0.452,0.376-0.616
		c-0.481-1.971,0.265-3.917,0.077-5.881c-0.189-1.969-0.366-3.941-0.451-5.916c-0.067-1.538,0.474-3.04,0.187-4.623
		c-0.304-1.678-0.285-3.414-0.571-5.096c-0.206-1.211-0.621-2.397-1.05-3.555c-0.486-1.31-0.637-2.6-0.363-3.982
		c0.102-0.513-0.03-1.131-0.225-1.636c-1.79-4.628-3.619-9.24-5.434-13.858c-1.484-3.776-3.373-7.35-5.541-10.767
		c-0.897-1.414-2.154-2.599-3.062-4.007c-1.49-2.312-3.273-4.337-5.204-6.285c-0.875-0.883-1.319-2.191-1.974-3.297
		c-0.152-0.256-0.32-0.548-0.558-0.701c-2.136-1.37-3.427-3.527-5.054-5.369c-0.577-0.653-1.09-1.387-1.758-1.928
		C148.584,320.847,147.965,320.229,148.171,319.05z M150.597,217.081c-0.229-0.876-0.505-1.517-0.549-2.174
		c-0.129-1.916-0.573-3.743-1.062-5.601c-0.876-3.326-2.891-6.024-4.543-8.905c-0.961-1.676-2.68-2.905-3.74-4.541
		c-1.383-2.135-3.689-3.103-5.41-4.786c-0.368-0.36-1.007-0.457-1.535-0.633c-0.41-0.136-0.944-0.079-1.247-0.325
		c-2.411-1.958-5.563-1.771-8.254-2.905c-0.382-0.161-0.863-0.138-1.295-0.122c-1.667,0.062-3.335,0.126-4.998,0.252
		c-0.741,0.056-1.554,0.104-2.187,0.437c-1.041,0.546-2.113,0.638-3.228,0.698c-0.259,0.014-0.534,0.115-0.764,0.244
		c-0.952,0.532-1.83,1.346-2.846,1.582c-1.821,0.423-3.234,1.528-4.81,2.36c-1.77,0.934-3.154,2.442-4.808,3.476
		c-1.666,1.041-3.188,2.083-4.218,3.753c-0.811,1.315-1.619,2.637-2.343,4.001c-0.637,1.201-1.3,2.42-1.7,3.709
		c-1.086,3.504-1.035,7.111-0.601,10.709c0.348,2.882,0.798,5.753,1.253,8.621c0.105,0.664,0.343,1.333,0.647,1.935
		c1.019,2.017,1.982,4.089,2.891,6.126c1.205,2.703,2.568,5.223,4.386,7.517c0.486,0.614,1.102,1.246,1.798,1.546
		c1.209,0.522,2.031,1.393,2.814,2.367c0.268,0.333,0.535,0.698,0.881,0.932c1.547,1.044,3.076,2.13,4.703,3.035
		c1.296,0.721,2.672,1.249,4.27,0.659c1.391-0.513,2.85-0.909,4.314-1.14c2.045-0.322,4.026-0.742,5.869-1.739
		c1.018-0.551,2.071-1.164,3.182-1.393c3.219-0.663,5.674-2.818,8.438-4.304c2.221-1.193,4.087-3.187,5.84-5.076
		c2.271-2.449,4.293-5.131,5.593-8.274c0.249-0.603,0.717-1.121,0.935-1.731c0.245-0.686,0.287-1.441,0.477-2.15
		c0.336-1.254,0.67-2.469,0.774-3.807C149.635,219.963,149.394,218.263,150.597,217.081z"/>
	<path fill="#FFFFFF" d="M655.845,245.379c-0.126,0.464-0.314,0.922-0.362,1.394c-0.063,0.614,0.213,1.365-0.05,1.839
		c-1.792,3.233-1.353,6.924-2.217,10.342c-0.478,1.89-1.842,3.542-3.877,3.823c-0.879,0.122-1.379,0.406-1.855,1.135
		c-0.754,1.155-1.793,1.942-3.319,1.827c-0.347-0.026-0.802,0.128-1.058,0.362c-1.354,1.238-2.983,1.442-4.704,1.377
		c-0.234-0.009-0.508-0.072-0.696,0.024c-2.609,1.324-5.352,0.761-7.982,0.325c-1.631-0.271-3.315-0.178-4.88-0.657
		c-0.975-0.299-2.164-0.383-2.736-1.57c-0.168-0.347-0.771-0.682-1.175-0.684c-2.013-0.008-3.326-1.526-4.96-2.301
		c-1.078-0.511-1.77-1.793-2.919-2.458c-2.745-1.589-5.18-3.538-7.06-6.163c-0.542-0.757-1.518-1.204-2.591-2.018
		c-0.334,0.959-0.718,1.697-0.837,2.475c-0.376,2.463-0.634,4.944-0.972,7.413c-0.317,2.318-0.638,1.614-2.102,3.606
		c-0.58,0.789-0.751,1.871-1.151,2.802c-1.209,2.813-3.255,5.138-4.702,7.751c-1.211,2.187-3.064,3.768-4.273,5.901
		c-0.721,1.271-2.196,2.172-3.457,3.063c-1.037,0.733-1.935,1.659-3.409,1.836c-0.959,0.115-1.893,1.01-2.696,1.717
		c-1.084,0.953-2.273,1.478-3.662,1.905c-3.62,1.11-7.379,1.458-11.06,1.614c-4.957,0.21-9.935-0.28-14.628-2.397
		c-5.11-2.304-9.053-5.991-12.59-10.158c-1.68-1.98-3.003-4.263-4.553-6.503c-1.126,1.224-0.778,2.695-0.572,3.818
		c0.319,1.737-0.095,3.266-0.648,4.748c-0.635,1.701-1.002,3.403-1.082,5.195c-0.198,4.462-1.471,10.703-2.842,14.897
		c-0.366,1.121-1.309,2.132-2.184,2.994c-2.333,2.297-4.719,4.543-7.86,5.777c-0.856,0.336-1.619,0.933-2.383,1.47
		c-2.258,1.586-4.717,2.856-7.375,3.445c-3.301,0.731-6.678,0.636-9.875-0.697c-2.651-1.105-5.245-2.344-7.877-3.496
		c-1.856-0.813-3.131-2.302-4.435-3.751c-1.601-1.779-3.229-3.542-4.706-5.422c-0.791-1.007-1.193-4.258-2.167-5.22
		c-2.389-2.359-4.441-5.01-5.927-8.052c-0.644-1.318-1.199-2.681-1.865-3.988c-1.354-2.659-2.611-2.336-2.89-5.372
		c-0.047-0.511-0.43-0.991-0.656-1.487c-0.609-1.336-1.278-2.647-1.814-4.012c-2.072-5.283-3.988-10.631-6.202-15.853
		c-0.898-2.119-2.403-3.983-3.649-5.953c-0.164-0.259-0.388-0.563-0.653-0.66c-1.492-0.544-2.696-1.462-3.718-2.656
		c-0.141-0.165-0.394-0.332-0.594-0.332c-1.986,0.008-3.969,1-5.96,2.022c-1.742,0.895-3.232,1.936-3.717,4.043
		c-0.237,1.028-0.854,1.967-1.291,2.95c-0.547,1.227-0.652,2.381,0.385,3.465c0.754,0.788,0.87,1.793,0.709,2.854
		c-0.177,1.166-0.346,2.287,0.819,3.192c0.848,0.658,0.468,1.765,0.017,2.362c-1.037,1.374-0.319,2.399,0.343,3.495
		c0.155,0.257,0.578,0.403,0.64,0.658c0.613,2.545,1.252,5.088,1.73,7.66c0.355,1.914,0.143,3.997,0.804,5.773
		c0.738,1.98,0.93,4.011,1.376,6.013c0.194,0.869,0.022,1.818,0.192,2.696c0.188,0.97,0.579-0.099,0.878,0.85
		c0.254,0.804,0.723,1.616,0.704,2.414c-0.031,1.261,0.288,4.372,0.556,5.576c0.616,2.765,1.165,5.717,0.806,8.472
		c-0.296,2.275,0.126,4.703-1.028,6.919c-0.57,1.096-1.151,2.101-2.243,2.567c-1.492,0.637-3.048,1.237-4.635,1.497
		c-1.101,0.18-2.209-0.23-3.049-1.314c-1.174-1.514-1.876-3.186-2.401-4.984c-0.415-1.422-1.116-2.684-2.234-3.836
		c-1.7,2.285-2.742,4.6-3.27,7.206c-0.505,2.487-1.765,4.63-3.87,6.119c-1.947,1.378-3.904,2.793-6.019,3.874
		c-3.502,1.79-7.047,1.498-10.514-0.352c-3.836-2.047-7.099-4.664-9.308-8.503c-0.681-1.183-1.717-2.155-2.507-3.282
		c-0.53-0.757-1.003-1.581-1.343-2.438c-0.615-1.549-1.633-2.764-2.892-4.29c-0.849,3.051-1.592,5.716-2.332,8.383
		c-0.083,0.3-0.078,0.646-0.231,0.9c-1.341,2.23-2.106,4.664-2.578,7.199c-0.443,2.38-1.92,3.947-3.924,5.138
		c-0.036,2.182-1.337,4.193-3.383,4.558c-1.634,0.292-2.569,0.979-2.723,2.294c-1.715,0.911-3.192,1.711-4.685,2.478
		c-0.338,0.174-0.745,0.21-1.102,0.354c-0.974,0.393-2.04-0.643-3.09,0.424c-0.556,0.565-1.812,0.713-2.706,0.618
		c-1.922-0.205-3.666,0.295-5.444,0.831c-0.331,0.1-0.798-0.014-1.125-0.181c-2.765-1.409-5.592-2.721-8.243-4.323
		c-2.695-1.628-5.371-3.377-6.853-6.367c-0.158-0.318-0.495-0.547-1.001-1.085c-0.223,0.74-0.516,1.213-0.472,1.652
		c0.176,1.741-0.456,3.215-1.385,4.589c-1.777,2.63-3.535,5.277-5.434,7.818c-0.617,0.826-1.573,1.48-2.5,1.977
		c-2.182,1.167-4.378,2.495-7.001,2.119c-0.968-0.139-2.096-0.448-2.775-1.082c-2.498-2.333-5.217-4.456-6.884-7.605
		c-0.971-1.833-2.608-3.288-3.234-5.371c-0.1-0.334-0.67-0.528-1.167-0.892c-0.31,0.619-0.719,1.074-0.747,1.553
		c-0.162,2.707-1.291,5.08-2.39,7.478c-0.584,1.276-1.012,2.624-1.617,3.89c-1.204,2.52-2.64,4.874-4.719,6.819
		c-1.31,1.226-2.318,2.779-3.65,3.976c-3.109,2.794-6.82,4.617-10.663,6.173c-0.332,0.134-0.759,0.076-1.137,0.046
		c-0.698-0.055-1.391-0.21-2.088-0.227c-4.359-0.107-7.901-2.003-11.088-4.841c-2.315-2.062-4.775-3.962-7.589-5.761
		c0.392,2.146,0.722,4.306,1.193,6.435c0.503,2.271,1.126,4.516,1.72,6.766c0.498,1.889,1.073,3.758,1.525,5.657
		c0.211,0.889,0.22,1.827,0.305,2.744c0.044,0.466,0.011,0.942,0.086,1.402c0.941,5.743,1.891,11.486,2.85,17.226
		c0.651,3.898,1.319,7.793,1.98,11.689c0.273,1.61,1.021,3.319,0.71,4.807c-0.478,2.282-0.159,4.481-0.066,6.692
		c0.068,1.603-0.475,3.303,0.505,4.866c0.233,0.372-0.004,1.064-0.079,1.601c-0.368,2.638-0.404,5.239,0.02,7.907
		c0.323,2.034,0.137,4.168,0.02,6.248c-0.246,4.355-0.671,8.701-0.873,13.057c-0.108,2.328,0.266,4.68,0.12,7.002
		c-0.24,3.804-0.548,7.623-1.183,11.375c-0.327,1.935-0.837,4.022-2.406,5.488c-0.673,0.629-0.687,1.264-0.603,2.1
		c0.206,2.042-2.009,3.965-4.037,3.509c-0.426-0.096-1.023-0.6-1.08-0.985c-0.638-4.293-1.799-8.527-1.553-12.929
		c0.035-0.618-0.045-1.253-0.152-1.866c-0.737-4.215-1.434-8.44-2.268-12.636c-0.621-3.125-1.441-6.21-2.146-9.319
		c-0.275-1.214-0.428-2.457-0.724-3.665c-0.555-2.265-1.257-4.496-1.749-6.773c-0.855-3.963-1.41-7.998-2.434-11.914
		c-1.164-4.45-1.657-9-2.527-13.49c-0.442-2.282-1.095-4.524-1.64-6.787c-0.108-0.449-0.171-0.91-0.226-1.369
		c-0.454-3.762-1.098-7.461-2.319-11.086c-0.806-2.391-0.972-4.993-1.501-7.485c-0.5-2.356-1.038-4.707-1.67-7.03
		c-1.227-4.514-2.596-8.991-3.781-13.515c-0.915-3.496-1.635-7.044-2.459-10.564c-0.049-0.208-0.252-0.379-0.572-0.838
		c-0.702,0.8-1.48,1.444-1.951,2.264c-2.208,3.841-5.149,7.005-8.629,9.702c-2.112,1.637-4.384,2.865-7.148,2.919
		c-0.698,0.014-1.407,0.078-2.089,0.222c-2.833,0.598-5.216-0.321-7.289-2.176c-1.178-1.054-0.711-2.42-0.531-3.669
		c1.963-1.293,3.808-2.695,5.823-3.784c2.142-1.158,3.526-2.975,4.815-4.876c2.285-3.37,3.902-7.105,4.985-11.001
		c1.625-5.848,2.349-11.874,2.77-17.918c0.139-2.002-0.172-4.034-0.256-6.052c-0.044-1.07-0.006-2.145-0.069-3.213
		c-0.229-3.887-0.609-7.769-0.696-11.659c-0.082-3.689-1.068-7.23-1.427-10.846c-0.232-2.34-1.218-4.604-0.815-7.017
		c0.043-0.255-0.224-0.565-0.356-0.846c-0.943-2.019-0.369-3.944,0.367-5.856c0.053-0.138,0.162-0.278,0.283-0.362
		c1.724-1.203,3.802-1.751,5.744-1.838c1.98-0.089,3.834,0.956,4.845,3.047c0.528,1.092,1.531,1.945,2.162,2.999
		c0.58,0.969,0.949,2.064,1.584,3.492c0.422-0.675,0.704-0.943,0.766-1.255c0.527-2.627,1.922-4.839,3.074-7.205
		c1.26-2.587,3.018-4.729,4.771-6.848c1.798-2.174,3.661-4.489,6.537-5.471c0.221-0.075,0.491-0.11,0.646-0.259
		c2.957-2.832,6.793-2.841,10.478-3.139c2.682-0.217,5.396-0.071,8.095-0.028c0.423,0.007,0.835,0.349,1.264,0.5
		c0.497,0.175,1.036,0.499,1.509,0.43c2.185-0.318,4.12,0.525,6.098,1.172c0.437,0.143,0.899,0.363,1.223,0.677
		c1.599,1.554,3.174,3.134,4.724,4.738c2.248,2.326,4.581,4.584,6.666,7.05c2.202,2.604,4.162,5.412,6.212,8.144
		c0.512,0.682,0.997,1.391,1.427,2.126c0.504,0.863,1.172,1.723,1.353,2.664c0.497,2.583,1.735,4.755,3.203,6.865
		c0.38,0.546,0.739,1.312,0.67,1.928c-0.236,2.108,0.633,3.929,1.165,5.863c1.041,3.78,1.912,7.592,1.725,11.581
		c-0.076,1.614,0.094,3.279,0.422,4.864c0.389,1.876,0.398,3.673-0.016,5.537c-0.196,0.885-0.034,1.85-0.034,2.498
		c2.758,1.667,5.335,3.245,7.937,4.78c0.663,0.391,1.423,0.612,2.113,0.963c1.023,0.521,1.914,0.516,2.753-0.389
		c0.298-0.322,0.76-0.542,1.188-0.686c2.051-0.691,2.605-2.392,2.951-4.252c0.2-1.072,0.413-2.142,0.615-3.214
		c0.537-2.845,0.157-5.671-0.153-8.503c-0.373-3.407-0.562-6.839-1.074-10.224c-0.344-2.281-1.148-4.489-1.669-6.747
		c-0.256-1.112-0.281-2.276-0.515-3.395c-0.189-0.904-0.347-1.901-0.845-2.636c-1.365-2.016-1.885-4.334-2.219-6.607
		c-0.447-3.043-1.47-5.895-2.681-8.617c-0.56-1.258-0.822-2.331-0.774-3.609c0.014-0.381,0.032-0.86-0.169-1.133
		c-0.817-1.106-4.18-11.257-4.159-12.674c0.014-0.921-0.765-1.831-0.877-2.783c-0.162-1.374-0.041-2.782-0.041-4.366
		c1.918-0.629,3.64-1.291,5.416-1.744c1.339-0.341,2.953,0.625,2.934,1.984c-0.03,2.207,1.688,3.63,2.045,5.619
		c0.147,0.82,0.611,1.583,0.937,2.37c1.216,2.934,5.434,14.866,6.653,17.799c0.651,1.565,1.279,3.141,1.964,4.691
		c0.783,1.77,1.694,3.487,2.409,5.284c0.627,1.576,1.086,3.221,1.571,4.85c0.812,2.729,2.378,4.94,4.051,7.252
		c3.297,4.556,7.183,8.388,11.644,11.706c1.623,1.207,3.296,2.302,5.485,2.356c1.721,0.042,3.21-0.321,4.568-1.376
		c0.911-0.708,1.906-1.306,2.834-1.993c0.294-0.218,0.71-0.575,0.699-0.855c-0.072-1.887,0.925-2.705,2.807-2.663
		c-0.06-1.482,0.488-2.409,1.684-2.954c1.171-0.533,1.56-1.612,1.843-2.782c0.346-1.429,0.891-2.817,1.147-4.259
		c0.153-0.865,0.163-1.912-0.193-2.678c-0.715-1.54-1.756-2.925-2.602-4.408c-0.878-1.54-1.673-3.128-2.525-4.683
		c-0.857-1.565-1.777-3.096-2.602-4.678c-0.821-1.574-1.533-3.205-2.339-4.787c-1.512-2.968-1.966-6.285-3.133-9.363
		c-1.173-3.093-2.228-9.379-2.715-12.586c-0.168-1.108,0.105-2.289,0.219-3.432c0.046-0.463,0.323-0.923,0.291-1.37
		c-0.16-2.204,0.776-4.009,1.672-5.957c1.43-3.108,3.708-4.898,6.868-5.758c2.975-0.81,5.788-0.034,8.314,1.424
		c1.088,0.628,1.838,1.992,2.504,3.157c0.684,1.196,1.104,2.549,1.595,3.85c0.983,2.605,1.815,5.274,2.931,7.818
		c1.369,3.12,3.061,9.41,3.387,12.728c0.116,1.185,0.114,2.264,0.641,3.376c0.314,0.664,0.215,1.525,0.292,2.298
		c0.075,0.744,0.126,1.491,0.21,2.234c0.078,0.695,0.335,1.403,0.257,2.076c-0.456,3.935-0.029,7.806,0.535,11.701
		c0.484,3.341,0.669,6.725,0.938,9.58c1.653,1.784,3.022,3.25,4.377,4.728c0.992,1.081,1.958,2.185,2.954,3.263
		c0.315,0.341,0.77,0.576,1.019,0.953c2.562,3.867,6.468,6.251,9.974,9.073c1.255,1.01,2.669,1.144,4.191,0.541
		c1.448-0.574,3.256-1.03,3.834-2.4c0.8-1.895,2.642-2.731,3.547-4.357c0.9-1.619,1.694-3.344,2.205-5.117
		c0.424-1.473,0.386-3.082,0.52-4.634c0.08-0.929-0.02-1.887,0.161-2.792c0.714-3.571,0.306-7.157,0.186-10.731
		c-0.052-1.542-0.723-3.068-0.736-4.605c-0.026-2.966-1.216-5.556-2.197-8.233c-0.147-0.4-0.083-0.881-0.099-1.325
		c-0.014-0.377,0.152-0.863-0.025-1.116c-1.449-2.066-0.703-4.58-1.445-6.784c-0.342-1.016-0.579-2.067-0.871-3.1
		c-0.085-0.299-0.284-0.593-0.278-0.886c0.069-3.139-1.101-6.057-1.562-9.09c-0.428-2.813-3.175-5.657-2.504-8.571
		c0.103-0.446-1.124-8.06-1.385-8.482c-0.881-1.428-0.904-2.74,0.047-4.038c1.109-1.513,4.702-2.695,6.561-2.212
		c1.669,0.434,1.771,2.03,2.446,3.197c0.144,0.249,0.089,0.608,0.142,0.914c0.308,1.799,3.322,10.579,4.671,12.184
		c0.972,1.157,1.185,2.952,1.835,4.732c0.617-0.61,1.086-0.988,1.449-1.449c1.652-2.096,3.09-4.402,4.964-6.272
		c1.67-1.666,3.753-2.953,5.761-4.237c2.028-1.297,4.148-4.468,6.301-5.549c4.257-2.137,8.772-2.552,13.439-1.8
		c1.226,0.198,2.524,0.079,3.701,0.414c2.692,0.765,5.443,1.482,7.954,2.675c1.928,0.916,3.434,2.68,5.292,3.793
		c2.566,1.536,2.977,4.461,4.63,6.559c2.794,3.547,3.609,8.009,5.562,11.948c0.737,1.487,0.865,3.276,1.268,4.929
		c0.073,0.301,0.086,0.625,0.204,0.906c1.444,3.439,2.938,3.858,4.345,7.311c1.053,2.585,1.978,5.223,3.006,7.819
		c0.332,0.837,0.799,1.623,1.226,2.421c0.984,1.837,1.923,3.701,2.99,5.49c1.072,1.797,2.298,3.501,3.412,5.274
		c0.49,0.779,0.707,1.789,1.331,2.412c1.162,1.161,2.449,2.244,3.836,3.119c1.471,0.927,3.606-0.328,3.948-2.365
		c0.261-1.555,0.319-3.067,1.719-4.164c0.271-0.212,0.209-1.052,0.073-1.539c-0.283-1.018,0.2-1.74,0.561-2.62
		c0.598-1.462,0.894-3.057,1.224-4.616c0.262-1.235,0.539-2.443,0.553-3.761c0.018-1.739,0.501-3.514,1.034-5.194
		c0.521-1.641,0.548-3.371,0.975-4.954c0.652-2.419,0.01-1.659-0.106-3.962c-0.168-3.341-0.752-6.619-1.737-9.847
		c-0.57-1.869-0.603-3.896-0.969-5.835c-0.444-2.356-1.317-4.683-1.397-7.043c-0.094-2.775-1.816-5.249-1.238-8.083
		c0.03-0.147-0.007-0.312-0.03-0.465c-0.481-3.145-1.007-6.283-1.433-9.436c-0.348-2.576-1.158-5.071-1.016-7.751
		c0.055-1.028-0.811-2.143-1.373-3.155c-0.522-0.94-0.945-1.791-0.149-2.794c0.152-0.192,0.174-0.638,0.059-0.869
		c-1.564-3.142-1.559-6.733-3.046-9.955c-1.251-2.713-1.451-5.891-2.459-8.742c-0.757-2.14-1.04-4.368-1.713-6.495
		c-1.238-3.908-2.756-7.726-4.047-11.619c-0.881-2.658-1.571-5.379-2.353-8.071c-1.04-3.58-2.093-7.155-3.128-10.736
		c-1.125-3.891-2.174-7.806-3.374-11.674c-0.68-2.192-1.597-4.31-2.511-6.737c-0.896,0.588-1.544,0.964-2.139,1.412
		c-2.779,2.094-5.046,4.829-8.183,6.483c-0.606,0.32-1.17,0.796-1.624,1.314c-2.431,2.779-5.47,4.794-8.451,6.896
		c-1.326,0.935-2.746,1.856-3.756,3.085c-1.027,1.25-2.397,1.587-3.55,2.324c-1.615-1.323-2.995-2.665-4.579-3.695
		c-1.667-1.084-1.877-2.683-2.194-4.369c-0.715-3.809,0.226-7.347,1.483-10.892c0.486-1.372,0.682-2.885,0.777-4.348
		c0.142-2.207,1.795-3.564,2.709-5.332c2.548-0.812,4.608-2.536,6.932-3.769c2.078-1.103,4.286-2.05,6.067-3.675
		c0.272-0.248,0.661-0.419,1.025-0.509c3.148-0.779,5.822-2.524,8.587-4.048c0.382-2.239-0.818-4.014-1.368-5.93
		c-0.685-2.387-1.499-4.737-2.167-7.128c-0.517-1.851-1.126-3.644-1.109-5.67c0.013-1.457-1.128-2.886-1.394-4.392
		c-0.499-2.826-0.729-5.7-1.092-8.551c-0.078-0.611-0.318-1.207-0.355-1.817c-0.064-1.051-0.405-2.326,0.049-3.117
		c0.868-1.514,1.861-1.148,3.807-1.615c0.678-0.163,1.379-0.236,2.072-0.322c0.227-0.028,0.597-0.056,0.679,0.065
		c1.271,1.887,3.896-0.238,5.212,1.534c0.245,0.33,0.469,0.885,0.362,1.231c-0.447,1.449,0.081,2.649,0.662,3.919
		c0.579,1.267,1.097,2.592,1.411,3.945c1.077,4.648,3.277,8.859,5.004,13.254c0.393,1,0.544,2.094,0.831,3.138
		c0.424,1.547,0.869,3.088,1.368,4.852c1.211-0.343,2.271-0.425,3.091-0.911c4.658-2.762,9.919-4.054,14.845-6.156
		c1.463-0.624,3.173-0.732,4.789-0.915c1.341-0.152,2.616-1.162,4.063-0.347c0.194,0.11,0.594-0.101,0.882-0.207
		c4.886-1.809,9.97-2.316,15.106-1.939c1.551,0.114,3.179,0.895,4.519,1.761c1.809,1.169,3.883,1.488,5.773,2.34
		c0.761,0.343,1.479,0.786,2.206,1.202c0.531,0.304,1.061,0.615,1.562,0.965c1.263,0.88,2.489,1.813,3.772,2.661
		c0.472,0.312,1.098,0.687,1.592,0.615c1.452-0.213,2.87-0.653,4.308-0.972c2.748-0.609,5.478-0.221,8.07,0.613
		c3.641,1.172,6.311,3.951,9.159,6.329c1.139,0.951,1.971,2.531,2.418,3.986c0.583,1.895,1.58,3.596,1.965,5.64
		c0.431,2.289-0.43,4.13-0.841,6.101c-0.301,1.442-1.389,2.724-2.154,4.061c-0.149,0.261-0.464,0.423-0.642,0.673
		c-0.754,1.059-2.48-0.011-3.112,1.561c-0.473,1.177-1.734,1.613-2.893,2.148c-1.767,0.816-3.391,1.888-5.422,0.819
		c-0.225-0.118-0.62-0.047-0.884,0.062c-1.503,0.624-2.958,0.022-3.942-0.803c-1.089-0.912-2.019-0.892-2.857-0.629
		c-1.032-0.549-1.862-0.911-2.599-1.41c-0.507-0.343-1.22-0.85-1.258-1.329c-0.118-1.503-1.261-2.149-2.111-3.073
		c-2.422-2.633-3.346-5.59-2.576-9.236c0.456-2.16,0.397-4.498-0.481-6.685c-0.39-0.972-0.954-1.448-2.041-1.617
		c-1.033-0.161-1.997-0.737-3.003-1.099c-0.581-0.209-1.174-0.444-1.78-0.515c-2.903-0.343-5.692-0.101-8.488,0.997
		c-2.509,0.985-5.083,1.798-7.83,2.228c-2.939,0.461-5.818,1.5-8.56,2.93c-3.504,1.827-7.215,3.28-10.911,4.701
		c-2.14,0.823-4.143,1.807-5.93,3.222c-1.17,0.926-1.235,1.342-0.591,2.576c1.764,3.38,2.815,7.018,3.861,10.659
		c0.237,0.824,0.538,1.63,0.827,2.439c1.082,3.03,1.892,6.199,3.341,9.042c1.302,2.556,1.709,5.246,2.385,7.921
		c0.264,1.046,0.657,2.105,1.211,3.025c1.829,3.039,2.922,6.322,3.822,9.738c0.689,2.618,1.936,5.085,2.804,7.663
		c1.18,3.506,2.181,7.072,3.368,10.575c0.616,1.819,1.501,3.545,2.204,5.337c0.79,2.015,1.555,4.042,2.253,6.09
		c0.776,2.274,1.024,4.877,2.316,6.785c1.258,1.858,1.193,3.961,2.155,5.801c0.929,1.776,1.551,3.71,2.322,5.57
		c0.772,1.863,1.573,3.714,2.34,5.579c1.587,3.861,3.104,7.752,4.755,11.586c1.208,2.806,2.922,5.438,3.783,8.335
		c0.722,2.43,2.441,4.463,2.59,7.086c0.028,0.491,0.477,0.964,0.749,1.435c1.587,2.742,3.107,5.526,4.796,8.203
		c1.077,1.706,2.301,0.349,3.669,1.826c0.695,0.751,1.957,0.944,2.785,1.61c3.441,2.769,7.605,3.807,11.725,4.804
		c2.904,0.703,5.614,0.113,7.855-2.325c1.506-1.637,2.82-0.302,3.7-2.332c0.274-0.632,0.626-1.244,1.029-1.804
		c1.692-2.352,2.185-5.047,2.441-7.853c0.097-1.066,0.424-2.162,0.883-3.132c0.831-1.755,0.656-3.442,0.136-5.213
		c-1.12-3.818-1.483-7.736-1.382-11.703c0.004-0.156,0.053-0.317,0.026-0.466c-0.683-3.726-0.907-7.509-1.422-11.252
		c-0.453-3.293-1.358-6.522-1.964-9.798c-0.595-3.211-3.004-6.457-3.624-9.662c-0.217-1.121-0.896-2.145-1.227-3.253
		c-0.733-2.455-1.364-4.941-2.077-7.403c-0.114-0.395-0.422-0.739-0.663-1.091c-0.128-0.186-0.426-0.327-0.443-0.508
		c-0.218-2.287-0.633-4.59-0.512-6.863c0.094-1.776,1.544-2.992,3.103-3.792c1.761-0.904,3.74-0.849,5.656-1.003
		c0.766-0.062,1.588,0.17,2.305-0.026c3.182-0.869,5.917,0.497,8.72,1.583c0.786,0.304,1.67,0.476,2.332,0.954
		c2.579,1.858,4.212,4.392,4.686,7.544c0.37,2.459-0.041,5.204,0.926,7.359c1.107,2.465-0.407,4.44-0.118,6.628
		c0.081,0.611,1.943,1.261,2.08,1.852c0.838,3.628,0.824,7.348,0.352,10.943c-0.345,2.629,0.569,5.247-0.376,7.853
		c-0.33,0.91,0.192,2.108,0.243,3.179c0.264,5.488,0.136,11.027,2.727,16.135c0.796,1.569,1.611,3.071,2.795,4.405
		c1.172,1.32,1.969,2.983,3.661,3.806c0.137,0.066,0.307,0.17,0.355,0.297c1.253,3.317,5.155,3.259,7.15,5.623
		c3.789,1.366,7.446,3.357,11.624,3.065c1.412-0.099,2.806-0.821,4.151-1.391c0.98-0.415,1.868-1.048,2.904-1.645
		c2.144-3.024,1.193-6.754,1.621-10.24c0.433-3.526,0.496-7.103,0.593-10.661c0.05-1.845-0.225-3.697-0.266-5.548
		c-0.024-1.083,0.299-2.193,0.163-3.252c-0.606-4.703-1.234-9.406-2.023-14.081c-0.828-4.909-1.824-9.791-2.792-14.676
		c-0.937-4.729-1.953-9.442-2.891-14.17c-0.314-1.584-0.455-3.203-0.752-4.791c-0.131-0.701-0.308-1.472-0.715-2.028
		c-1.752-2.393-1.176-5.537-2.669-8.019c-0.241-0.402-0.102-1.429,0.239-1.711c1.126-0.931,2.334-1.893,3.678-2.404
		c2.465-0.938,3.891-0.328,5.589,2.008c0.977,1.344,1.678,2.777,2.211,4.419c0.806,2.484,2.266,4.757,3.597,7.418
		c0.381-0.67,0.733-1.133,0.926-1.654c0.821-2.223,1.878-4.221,3.754-5.825c1.21-1.034,2.056-2.503,3.026-3.806
		c2.444-3.282,5.858-5.295,9.454-6.949c2.645-1.216,5.472-2.038,8.228-3.008c0.343-0.121,0.815-0.225,1.108-0.085
		c1.984,0.948,4.051,0.536,6.102,0.485c1.686-0.042,3.375-0.067,5.059-0.006c0.425,0.015,0.839,0.384,1.255,0.597
		c0.408,0.209,0.818,0.621,1.217,0.61c2.486-0.072,4.278,1.77,6.54,2.286c0.221,0.05,0.468,0.162,0.619,0.323
		c1.614,1.72,3.219,3.448,4.81,5.189c1.446,1.582,2.977,3.101,4.273,4.799c1.118,1.465,1.937,3.156,2.925,4.725
		c1.942,3.084,3.908,6.153,5.866,9.227c0.249,0.391,0.534,0.76,0.762,1.162c1.583,2.798,3.162,5.6,4.727,8.408
		c0.299,0.537,0.528,1.113,0.799,1.667c0.529,1.08,0.676,2.386,1.854,3.088c0.182,0.109,0.348,0.362,0.388,0.574
		c0.373,1.951,1.911,3.248,2.724,4.91c0.894,1.826,1.891,3.52,3.117,5.124c0.551,0.721,0.903,1.598,1.327,2.413
		c0.247,0.476,0.367,1.05,0.703,1.444c1.754,2.056,3.606,4.03,5.328,6.111c0.988,1.194,2.037,1.881,3.656,2.197
		c1.48,0.289,2.624,0.58,4.19-0.029c1.3-0.505,2.134-0.976,2.592-2.25c0.298-0.828,0.29-1.518-0.41-2.118
		c-0.118-0.101-0.2-0.253-0.329-0.333c-3.517-2.198-5.349-5.942-8.087-8.855c-0.528-0.562-0.809-1.38-1.121-2.115
		c-1.012-2.382-2.876-4.338-3.121-7.137c-0.121-1.386-1.177-2.671-1.673-4.051c-0.306-0.851-0.296-1.809-0.529-2.693
		c-0.35-1.326-0.799-2.626-1.188-3.942c-0.482-1.631-1.094-3.241-1.384-4.906c-0.458-2.633-0.931-5.303-0.958-7.962
		c-0.026-2.528,0.526-5.06,0.793-7.594c0.071-0.677,0.078-1.371,0.028-2.05c-0.219-2.975,0.675-5.802,1.117-8.689
		c0.035-0.228,0.037-0.559,0.182-0.658c1.763-1.211,1.484-3.329,2.184-4.994c1.71-4.065,3.899-7.786,6.878-11.039
		c0.836-0.913,1.569-1.946,2.51-2.731c0.959-0.799,2.116-1.36,3.588-2.275c0.964-2.155,2.832-3.992,5.807-4.56
		c0.674-0.128,1.295-0.515,1.955-0.738c0.655-0.221,1.319-0.499,1.996-0.556c2.063-0.174,4.076-0.4,5.694-1.913
		c0.259-0.242,0.706-0.408,1.062-0.402c1.784,0.03,3.567,0.129,5.35,0.206c0.078,0.003,0.186-0.003,0.227,0.043
		c1.854,2.059,4.342,0.553,6.505,1.035c1.593,0.355,3.128,0.803,4.592,1.416c2.084,0.874,3.053,0.747,4.362-1.012
		c1.02-1.371,2.061-2.725,3.099-4.082c0.189-0.247,0.38-0.502,0.614-0.701c1.593-1.35,3.425-2.498,4.74-4.077
		c1.465-1.761,3.523-2.536,5.205-3.899c3.524-2.856,7.552-4.346,12.131-3.923c2.794,0.258,5.582,0.638,8.348,1.112
		c0.865,0.148,1.647,2.78,2.503,3.208c-0.352,1.616-1.33,0.268-2.668,0.367c-2.165,0.16-4.338,0.29-6.508,0.302
		c-3.424,0.019-6.083,1.393-8.065,4.17c-0.485,0.68-1.096,1.27-1.651,1.9c-1.078,1.225-2.257,2.376-3.215,3.689
		c-2.147,2.943-4.183,5.967-6.434,9.2c0.813,0.725,1.414,1.243,1.995,1.784c1.68,1.564,3.451,3.045,4.998,4.731
		c1.783,1.943,3.465,3.999,4.997,6.144c1.014,1.42,2.291,2.809,2.214,4.777c-0.006,0.148,0.041,0.329,0.128,0.446
		c1.813,2.449,1.589,5.374,1.926,8.168c0.037,0.309-0.038,0.76,0.137,0.904c1.606,1.316,1.325,3.2,1.516,4.92
		c0.347,3.138,0.821,6.277,0.471,9.449c-0.093,0.838-0.304,1.663-0.454,2.496c-0.069,0.383-0.296,0.847-0.161,1.139
		c1.258,2.705-0.508,4.969-1.014,7.412c-0.266,1.287-0.428,2.607-0.818,3.855c-0.394,1.262-0.985,2.467-1.541,3.673
		c-0.541,1.172-1.145,2.316-1.725,3.47c-0.38,0.757-0.578,1.766-1.187,2.218c-1.874,1.389-2.356,3.595-3.519,5.391
		c-0.295,0.455-0.511,1.02-0.919,1.331c-0.751,0.574-1.034,1.242-1.129,2.175c-0.132,1.299-0.881,2.144-2.104,2.85
		c-1.458,0.843-3.092,1.64-3.8,3.446c-0.202,0.515-0.843,0.896-1.345,1.25c-3.226,2.268-6.584,4.39-10.282,5.717
		c-3.165,1.136-6.479,2.107-9.965,1.545c-0.153-0.025-0.313-0.028-0.468-0.014c-3.944,0.364-7.726-0.432-11.464-1.578
		c-0.662-0.203-1.36-0.29-2.223-0.467c-0.868,1.381-1.77,2.724-2.58,4.122c-2.737,4.721-6.315,8.868-11.026,11.406
		c-3.815,2.055-7.831,4.141-12.286,4.826c-2.595,0.399-5.187,0.815-7.774,1.263c-4.925,0.854-9.07-0.74-12.658-4.028
		c-1.721-1.577-3.432-3.175-5.019-4.882c-0.78-0.839-1.233-1.973-1.9-2.928c-0.849-1.215-0.879-2.989-2.55-3.666
		c-0.282-0.114-0.495-0.604-0.582-0.959c-0.55-2.252-1.87-4.097-3.086-6.001c-0.247-0.387-0.436-0.821-0.599-1.252
		c-1.307-3.446-2.543-6.92-3.922-10.337c-0.783-1.94-1.79-3.789-2.702-5.676c-0.067-0.138-0.271-0.257-0.263-0.376
		c0.171-2.748-1.451-4.87-2.59-7.118c-1.144-2.259-2.593-4.364-3.92-6.529c-1.168-1.906-1.99-4.048-3.857-5.476
		c-0.614-0.469-1.156-1.057-1.642-1.663c-0.953-1.188-1.986-2.178-3.61-2.35c-0.436-0.046-0.856-0.341-1.261-0.563
		c-1.327-0.725-2.631-1.398-4.065-0.188c-0.275,0.232-0.708,0.351-1.08,0.385c-2.471,0.224-4.469,1.484-5.914,3.313
		c-2.172,2.749-4.019,5.83-4.143,9.426c-0.052,1.515,0.859,3.102,1.483,4.593c1.412,3.37,2.955,6.685,4.368,10.055
		c0.686,1.637,1.159,3.361,1.799,5.019c1.114,2.887,2.358,5.727,3.408,8.636c1.185,3.284,2.217,6.624,3.316,9.939
		c0.098,0.297,0.112,0.711,0.319,0.868c2.273,1.723,2.513,4.747,4.359,6.743c0.881,0.952,1.293,2.096,1.009,3.439
		c-0.071,0.337-0.068,0.847,0.132,1.058c2.167,2.293,2.268,5.087,2.086,7.989c-0.061,0.967,0.07,1.948,0.138,2.921
		c0.117,1.676-0.218,2.271-1.657,3.004c-0.673,0.343-1.292,0.797-1.976,1.114c-1.362,0.631-2.746,1.185-4.147,0.043
		c-0.236-0.192-0.54-0.374-0.832-0.412c-3.536-0.465-5.579-3.186-7.986-5.324c-0.612-0.544-1.032-1.382-1.35-2.163
		c-0.979-2.405-1.867-4.847-2.79-7.275C656.212,245.343,656.028,245.361,655.845,245.379z M282.773,350.351
		c1.979-0.361,3.821-0.684,5.657-1.035c1.382-0.264,2.325-0.927,2.837-2.387c0.304-0.866,1.105-1.709,1.905-2.205
		c0.734-0.456,1.039-0.975,0.966-1.676c-0.222-2.134,0.188-4.162,0.699-6.216c0.257-1.034,0.309-2.211,0.094-3.249
		c-0.271-1.315-0.363-2.535-0.218-3.897c0.202-1.893-0.059-3.842-0.2-5.761c-0.17-2.321-0.418-4.636-0.642-6.953
		c-0.037-0.386-0.113-0.77-0.197-1.149c-0.68-3.091-1.337-6.187-2.06-9.268c-0.584-2.49-1.194-4.976-1.899-7.434
		c-0.407-1.419-1.126-2.75-1.53-4.17c-1.242-4.359-3.204-8.289-5.894-11.986c-1.809-2.486-4.263-3.615-6.812-4.736
		c-1.972-0.867-4.092-1.188-6.288-1.405c-2.402-0.238-4.579,0.108-6.791,0.801c-0.358,0.112-0.849,0.192-1.018,0.455
		c-1.292,2.01-3.477,3.247-4.342,5.703c-1.025,2.91-2.557,5.642-3.064,8.741c-0.289,1.768-0.618,3.531-0.837,5.307
		c-0.179,1.451-0.33,2.92-0.297,4.377c0.03,1.306,0.785,2.76,0.409,3.875c-0.733,2.173-0.187,4.172,0.199,6.174
		c0.883,4.577,1.887,9.137,3.025,13.657c0.796,3.164,1.805,6.297,4.276,8.667c0.607,0.582,1.347,1.06,1.832,1.727
		c1.608,2.212,3.421,4.199,5.675,5.769c2.034,1.416,4.014,2.913,6.09,4.263c1.863,1.211,3.784,2.35,5.856,3.184
		C281.058,349.864,281.956,350.091,282.773,350.351z M779.056,156.432c-1.01,1.057-1.746,1.586-2.149,2.303
		c-0.702,1.246-1.508,2.265-2.714,3.118c-1.164,0.824-2.341,1.933-2.933,3.19c-0.882,1.875-2.676,2.376-4.146,2.933
		c-2.615,0.991-5.231,1.858-7.28,3.82c-0.824,0.789-1.646,1.023-2.734,0.906c-1.224-0.132-2.466-0.099-3.7-0.143
		c-1.61-0.057-3.22-0.146-4.83-0.163c-0.508-0.006-1.019,0.175-1.707,0.303c1.302,1.842,1.197,3.747,1.109,5.665
		c-0.042,0.913-0.015,1.842,0.101,2.749c0.42,3.285,0.948,6.546,2.421,9.572c0.195,0.401,0.197,0.9,0.269,1.357
		c0.222,1.414,0.563,2.718,1.922,3.569c0.456,0.286,0.847,0.949,0.94,1.495c0.439,2.588,1.908,4.492,3.73,6.256
		c1.315,1.274,2.458,2.724,3.702,4.073c1.265,1.372,2.356,3.053,3.894,3.989c2.102,1.279,4.377,2.966,7.14,1.372
		c0.122-0.071,0.321,0.002,0.461-0.052c1.141-0.437,2.312-0.813,3.405-1.349c2.495-1.224,3.976-3.339,5.196-5.786
		c1.715-3.44,3.383-6.834,3.039-10.844c-0.085-0.992-0.139-2.071,0.155-2.995c1.014-3.187,0.73-6.42,0.233-9.578
		c-0.237-1.506-0.634-3.033-0.354-4.473c0.341-1.758-0.418-3.107-1.149-4.421c-0.58-1.041-0.745-1.985-0.611-3.098
		c0.052-0.434-0.061-0.899-0.153-1.339c-0.63-3.036-1.23-6.079-1.938-9.096C780.136,158.752,779.61,157.806,779.056,156.432z
		 M770.001,143.644c-0.555-0.582-1.088-1.254-1.733-1.792c-1.488-1.241-2.696-2.897-4.889-3.095
		c-1.208-0.109-2.601-0.159-3.547-0.785c-2.495-1.652-4.701-0.637-6.992,0.274c-0.287,0.114-0.716,0.16-0.83,0.371
		c-0.541,1.006-1.314,1.601-2.371,2.083c-0.664,0.303-1.36,1.328-0.767,2.122c0.861,1.154,0.552,2.338,0.58,3.551
		c0.035,1.552,0.034,3.119,0.268,4.647c0.274,1.792,2.222,3.335,3.733,2.701c2.469-1.037,5.302-0.774,7.566-2.655
		C763.964,148.62,767.737,147.189,770.001,143.644z M378.744,275.55c1.247-0.289,1.46-0.844,1.17-1.791
		c-0.611-1.996-1.146-4.014-1.698-6.027c-0.429-1.563-0.903-3.117-1.238-4.701c-0.353-1.665-1.536-6.291-2.544-7.828
		c-0.91-1.387-1.197-3.176-1.801-4.772c-0.246-0.65-0.571-1.313-1.591-0.984c0.011,2.188-0.141,4.386,1.203,5.742
		c-0.069,1.323,0.793,5.207,0.865,6.074c0.076,0.923,0.435,1.822,0.514,2.744c0.067,0.783,0.248,1.368,0.709,2.08
		c0.805,1.245,1.359,2.742,1.654,4.207C376.4,272.345,377.476,273.932,378.744,275.55z"/>
</g>
</svg>
